<svg xmlns="http://www.w3.org/2000/svg" viewBox="0 0 148.61 201.68"><defs><style>.cls-1{fill:#fff;}</style></defs><g id="Layer_2" data-name="Layer 2"><g id="Layer_1-2" data-name="Layer 1"><path class="cls-1" d="M53.1,35.22v4c0,3.23,1.29,5.08,3.85,5.08h1.19V40.56h-.26c-.88,0-1.31-.68-1.31-1.88V35.35c0-2-.42-2.82-1.37-3.21.95-.39,1.37-1.25,1.37-3.21V25.59c0-1.2.43-1.87,1.31-1.87h.26V19.93H57c-2.56,0-3.85,1.86-3.85,5.09v4c0,.81-.31,1.18-.79,1.18h-.62V34h.62C52.79,34,53.1,34.41,53.1,35.22Z"/><path class="cls-1" d="M95.51,39.26v-4c0-.81.31-1.18.78-1.18h.61v-3.8h-.61c-.47,0-.78-.37-.78-1.18V25c0-3.23-1.3-5.09-3.85-5.09h-1.2v3.79h.27c.87,0,1.31.67,1.31,1.87v3.34c0,2,.42,2.82,1.37,3.21-1,.39-1.37,1.25-1.37,3.21v3.33c0,1.2-.44,1.88-1.31,1.88h-.27v3.78h1.2C94.21,44.34,95.51,42.49,95.51,39.26Z"/><path class="cls-1" d="M146.83,98,122,63.93a9.26,9.26,0,0,0-4.61-3.34l-12.56-4.06a8.86,8.86,0,0,0,2.63-6.3V22.7A8.84,8.84,0,0,0,103,15L78.69,1.16a8.85,8.85,0,0,0-8.77,0L45.62,15a8.84,8.84,0,0,0-4.46,7.68V50.23a8.86,8.86,0,0,0,2.63,6.3L31.23,60.59a9.21,9.21,0,0,0-4.61,3.34L1.77,98A9.23,9.23,0,0,0,0,103.39v42a9.23,9.23,0,0,0,1.77,5.44l24.85,34a9.23,9.23,0,0,0,3.56,2.91l.79.64.2-.24.06,0,40.24,13a9.16,9.16,0,0,0,5.67,0l40.24-13,.35-.14.29.35,1.61-1.32a9.05,9.05,0,0,0,1.52-1.24l.77-.64-.11-.14a1.81,1.81,0,0,0,.18-.21l24.84-34a9.18,9.18,0,0,0,1.78-5.44v-42A9.18,9.18,0,0,0,146.83,98ZM114.21,64.63A9.17,9.17,0,0,1,118.82,68l22.62,31.14-14.18,8.18a8.77,8.77,0,0,0-2.18-2.29L79.52,71.91a5.14,5.14,0,0,0-.55-.35L99.34,59.8ZM45.91,25.18a8.86,8.86,0,0,1,4.42-7.66L69.88,6.24a8.84,8.84,0,0,1,8.84,0L98.25,17.51a8.84,8.84,0,0,1,4.43,7.66v22.6a8.84,8.84,0,0,1-4.43,7.66L78.69,66.72a8.85,8.85,0,0,1-8.85,0L51.58,56.18l.05,0-1.3-.74a8.87,8.87,0,0,1-4.42-7.67ZM29.79,68a9.13,9.13,0,0,1,4.61-3.35l14.82-4.82L69.6,71.58c-.17.11-.35.21-.52.33L23.53,105a8.94,8.94,0,0,0-2.08,2.13L7.28,99Zm.45,113.38c-.15-.18-.32-.34-.45-.53L6.88,149.31a9.26,9.26,0,0,1-1.76-5.42v-39a9.51,9.51,0,0,1,.1-1.31l14.65,8.46a9.21,9.21,0,0,0,.43,2.87l17.4,53.55a8.93,8.93,0,0,0,1.18,2.35Zm84,2.82-37.06,12a9.25,9.25,0,0,1-5.7,0l-37-12L42.83,174a8.81,8.81,0,0,0,3.32.65h56.31a8.91,8.91,0,0,0,3.6-.77l8.39,10.22Zm29.28-40.29a9.26,9.26,0,0,1-1.76,5.42l-22.91,31.52c-.08.11-.17.2-.26.31l-8.66-10.56a8.57,8.57,0,0,0,1-2.09l17.4-53.55a8.41,8.41,0,0,0,.43-2.66l14.68-8.47a8.29,8.29,0,0,1,.08,1.11Z"/></g></g></svg>